<svg width="142" height="85" viewBox="0 0 142 85" fill="none" xmlns="http://www.w3.org/2000/svg">
<g clip-path="url(#clip0_30_2)">
<path d="M59.5357 11.565C59.5357 14.9017 58.3527 23.6073 55.9867 37.682C53.6813 51.696 52.5287 61.6453 52.5287 67.53C52.5287 73.354 53.7723 77.631 56.2597 80.361C55.4103 82.545 53.5297 83.637 50.6177 83.637C47.7057 83.637 45.2487 82.8787 43.2467 81.362C41.2447 79.7847 39.2427 77.085 37.2407 73.263C35.2993 69.441 32.1447 60.7353 27.7767 47.146C23.4087 33.5567 19.981 24.0623 17.4937 18.663C17.433 19.209 16.3107 26.1553 14.1267 39.502C12.0033 52.788 10.9417 62.2823 10.9417 67.985C10.9417 73.627 12.1247 77.7523 14.4907 80.361C13.6413 82.545 11.973 83.637 9.48567 83.637C5.057 83.637 2.84267 79.633 2.84267 71.625C2.84267 68.2883 3.90433 59.6433 6.02767 45.69C8.21167 31.676 9.30367 21.9087 9.30367 16.388C9.30367 10.8067 8.66667 6.74199 7.39267 4.19399C7.696 3.64799 8.424 3.16266 9.57667 2.738C10.7293 2.31333 12.3067 2.10099 14.3087 2.10099C16.3107 2.10099 18.1307 2.70766 19.7687 3.921C21.4067 5.13433 23.075 7.40933 24.7737 10.746C26.533 14.0827 29.5663 22.7277 33.8737 36.681C38.2417 50.5737 41.8513 60.5533 44.7027 66.62C44.9453 64.254 46.0373 56.61 47.9787 43.688C49.92 30.7053 50.8907 21.5143 50.8907 16.115C50.8907 10.7157 50.2537 6.74199 48.9797 4.19399C49.465 3.64799 50.284 3.16266 51.4367 2.738C52.65 2.31333 53.651 2.10099 54.4397 2.10099C56.199 2.10099 57.473 2.82899 58.2617 4.28499C59.111 5.741 59.5357 8.16766 59.5357 11.565ZM108.544 4.103L123.286 4.28499C130.566 4.28499 135.419 3.70866 137.846 2.55599C137.543 6.49933 136.572 9.13833 134.934 10.473C133.357 11.747 130.839 12.384 127.381 12.384C121.678 12.384 114.55 11.7167 105.996 10.382C105.996 14.4467 104.722 24.123 102.174 39.411C114.065 39.2897 121.83 38.2887 125.47 36.408C125.106 41.2007 123.741 44.1733 121.375 45.326C120.101 45.9933 118.888 46.418 117.735 46.6C116.582 46.7213 115.187 46.782 113.549 46.782C111.911 46.782 107.755 46.509 101.082 45.963C99.2015 58.0357 98.2611 66.984 98.2611 72.808C98.2611 74.0213 98.2915 74.901 98.3521 75.447C103.327 75.6897 107.513 75.811 110.91 75.811C122.376 75.811 129.595 75.0223 132.568 73.445C132.386 75.8717 131.961 77.813 131.294 79.269C130.687 80.725 129.656 81.7867 128.2 82.454C126.744 83.1213 125.318 83.5157 123.923 83.637C122.588 83.819 120.404 83.91 117.371 83.91C114.398 83.91 108.453 83.273 99.5351 81.999C97.8971 83.1517 96.2591 83.728 94.6211 83.728C90.2531 83.728 88.0691 80.7857 88.0691 74.901C88.0691 71.079 89.4341 61.2813 92.1641 45.508C91.1935 45.4473 89.6465 45.417 87.5231 45.417C87.8265 43.1723 88.3118 41.686 88.9791 40.958C89.6465 40.1693 91.0418 39.684 93.1651 39.502C94.8638 28.764 95.7131 21.302 95.7131 17.116C95.7131 12.8693 95.2581 9.381 94.3481 6.651C96.4715 4.95233 101.203 4.103 108.544 4.103Z" fill="#2563EB"/>
<path d="M55.9867 37.682L55.0005 37.5162L54.9999 37.5197L55.9867 37.682ZM56.2597 80.361L57.1917 80.7234L57.4163 80.1457L56.9989 79.6875L56.2597 80.361ZM43.2467 81.362L42.6278 82.1475L42.6353 82.1534L42.6428 82.1591L43.2467 81.362ZM37.2407 73.263L36.349 73.7159L36.3548 73.727L37.2407 73.263ZM27.7767 47.146L26.8246 47.452L26.8246 47.452L27.7767 47.146ZM17.4937 18.663L18.4019 18.2446L16.897 14.9778L16.4998 18.5526L17.4937 18.663ZM14.1267 39.502L13.1398 39.3405L13.1392 39.3442L14.1267 39.502ZM14.4907 80.361L15.4227 80.7234L15.6468 80.1472L15.2314 79.6892L14.4907 80.361ZM6.02767 45.69L5.03959 45.536L5.03905 45.5396L6.02767 45.69ZM7.39267 4.19399L6.51851 3.70835L6.26235 4.16943L6.49824 4.64121L7.39267 4.19399ZM9.57667 2.738L9.92237 3.67634L9.92237 3.67634L9.57667 2.738ZM19.7687 3.921L19.1734 4.72456L19.1734 4.72456L19.7687 3.921ZM24.7737 10.746L23.8825 11.1997L23.8858 11.2061L23.8891 11.2124L24.7737 10.746ZM33.8737 36.681L32.9181 36.976L32.9197 36.9809L33.8737 36.681ZM44.7027 66.62L43.7976 67.0454L45.3299 70.3055L45.6975 66.722L44.7027 66.62ZM47.9787 43.688L48.9676 43.8366L48.9677 43.8359L47.9787 43.688ZM48.9797 4.19399L48.2323 3.52963L47.7825 4.03565L48.0852 4.64121L48.9797 4.19399ZM51.4367 2.738L51.1063 1.79414L51.0986 1.79683L51.091 1.79965L51.4367 2.738ZM58.2617 4.28499L57.3824 4.76128L57.3899 4.77519L57.3979 4.78886L58.2617 4.28499ZM58.5357 11.565C58.5357 14.7983 57.3723 23.4068 55.0005 37.5162L56.9728 37.8478C59.333 23.8078 60.5357 15.005 60.5357 11.565H58.5357ZM54.9999 37.5197C52.6946 51.5335 51.5287 61.5551 51.5287 67.53H53.5287C53.5287 61.7356 54.668 51.8585 56.9734 37.8443L54.9999 37.5197ZM51.5287 67.53C51.5287 73.4658 52.7915 78.0392 55.5205 81.0345L56.9989 79.6875C54.7532 77.2228 53.5287 73.2422 53.5287 67.53H51.5287ZM55.3277 79.9986C54.9784 80.8967 54.4386 81.5302 53.71 81.9532C52.9654 82.3856 51.955 82.637 50.6177 82.637V84.637C52.1923 84.637 53.5782 84.3424 54.7143 83.6828C55.8664 83.0138 56.6916 82.0093 57.1917 80.7234L55.3277 79.9986ZM50.6177 82.637C47.8875 82.637 45.652 81.9296 43.8505 80.5649L42.6428 82.1591C44.8454 83.8277 47.5238 84.637 50.6177 84.637V82.637ZM43.8655 80.5765C42.0254 79.1267 40.1023 76.571 38.1265 72.799L36.3548 73.727C38.383 77.599 40.4639 80.4426 42.6278 82.1475L43.8655 80.5765ZM38.1322 72.8101C36.2339 69.0727 33.1027 60.448 28.7287 46.84L26.8246 47.452C31.1866 61.0226 34.3648 69.8093 36.3491 73.7159L38.1322 72.8101ZM28.7287 46.84C24.3606 33.2505 20.9171 23.7044 18.4019 18.2446L16.5854 19.0814C19.0449 24.4202 22.4567 33.8628 26.8246 47.452L28.7287 46.84ZM16.4998 18.5526C16.4429 19.0645 15.3285 25.9651 13.1398 39.3405L15.1135 39.6635C17.2928 26.3455 18.4231 19.3535 18.4876 18.7734L16.4998 18.5526ZM13.1392 39.3442C11.0157 52.6314 9.94167 62.1952 9.94167 67.985H11.9417C11.9417 62.3695 12.991 52.9446 15.1141 39.6598L13.1392 39.3442ZM9.94167 67.985C9.94167 73.7336 11.1416 78.1569 13.7499 81.0328L15.2314 79.6892C13.1078 77.3478 11.9417 73.5204 11.9417 67.985H9.94167ZM13.5587 79.9986C13.1959 80.9313 12.6855 81.5685 12.0548 81.9813C11.4195 82.3971 10.5829 82.637 9.48567 82.637V84.637C10.8757 84.637 12.117 84.3309 13.1501 83.6547C14.1877 82.9755 14.9361 81.9747 15.4227 80.7234L13.5587 79.9986ZM9.48567 82.637C8.53409 82.637 7.74902 82.4237 7.09558 82.0298C6.44045 81.6349 5.86257 81.0253 5.37851 80.15C4.3937 78.3693 3.84267 75.5696 3.84267 71.625H1.84267C1.84267 75.6884 2.3988 78.8947 3.62832 81.118C4.25144 82.2447 5.05751 83.1366 6.06314 83.7427C7.07044 84.3498 8.22292 84.637 9.48567 84.637V82.637ZM3.84267 71.625C3.84267 68.3818 4.88824 59.8247 7.01629 45.8404L5.03905 45.5396C2.92042 59.4619 1.84267 68.1948 1.84267 71.625H3.84267ZM7.01574 45.844C9.19913 31.8339 10.3037 21.9957 10.3037 16.388H8.30367C8.30367 21.8216 7.2242 31.5181 5.03959 45.536L7.01574 45.844ZM10.3037 16.388C10.3037 10.7729 9.6697 6.512 8.28709 3.74678L6.49824 4.64121C7.66363 6.97199 8.30367 10.8405 8.30367 16.388H10.3037ZM8.26682 4.67964C8.38443 4.46796 8.80816 4.08684 9.92237 3.67634L9.23096 1.79965C8.03985 2.23848 7.00758 2.82803 6.51851 3.70835L8.26682 4.67964ZM9.92237 3.67634C10.9166 3.31004 12.3599 3.10099 14.3087 3.10099V1.10099C12.2534 1.10099 10.5421 1.31661 9.23096 1.79965L9.92237 3.67634ZM14.3087 3.10099C16.0922 3.10099 17.7043 3.6363 19.1734 4.72456L20.3639 3.11744C18.557 1.77903 16.5292 1.10099 14.3087 1.10099V3.10099ZM19.1734 4.72456C20.622 5.79759 22.2047 7.90396 23.8825 11.1997L25.6648 10.2923C23.9453 6.9147 22.1913 4.47107 20.3639 3.11744L19.1734 4.72456ZM23.8891 11.2124C25.5954 14.4484 28.6011 22.991 32.9182 36.976L34.8292 36.386C30.5316 22.4643 27.4706 13.7169 25.6582 10.2796L23.8891 11.2124ZM32.9197 36.9809C37.2893 50.8788 40.9157 60.9135 43.7976 67.0454L45.6077 66.1946C42.787 60.1932 39.194 50.2685 34.8276 36.3811L32.9197 36.9809ZM45.6975 66.722C45.9371 64.3857 47.0242 56.7719 48.9676 43.8366L46.9898 43.5394C45.0504 56.4481 43.9536 64.1223 43.7079 66.518L45.6975 66.722ZM48.9677 43.8359C50.9089 30.8538 51.8907 21.5966 51.8907 16.115H49.8907C49.8907 21.432 48.9311 30.5569 46.9897 43.5401L48.9677 43.8359ZM51.8907 16.115C51.8907 10.6756 51.2552 6.50907 49.8741 3.74678L48.0852 4.64121C49.2521 6.97492 49.8907 10.7558 49.8907 16.115H51.8907ZM49.7271 4.85836C50.0524 4.49237 50.6917 4.07817 51.7824 3.67634L51.091 1.79965C49.8763 2.24716 48.8776 2.80362 48.2323 3.52963L49.7271 4.85836ZM51.767 3.68186C52.9323 3.274 53.8119 3.10099 54.4397 3.10099V1.10099C53.4901 1.10099 52.3677 1.35266 51.1063 1.79414L51.767 3.68186ZM54.4397 3.10099C55.18 3.10099 55.7601 3.25328 56.2185 3.51524C56.6737 3.77535 57.0651 4.17546 57.3824 4.76128L59.141 3.80871C58.6696 2.93852 58.0296 2.24664 57.2108 1.77875C56.3952 1.31271 55.4587 1.10099 54.4397 1.10099V3.10099ZM57.3979 4.78886C58.1055 6.00194 58.5357 8.19845 58.5357 11.565H60.5357C60.5357 8.13688 60.1165 5.48006 59.1254 3.78112L57.3979 4.78886ZM108.544 4.103L108.556 3.103H108.544V4.103ZM123.286 4.28499L123.274 5.28499H123.286V4.28499ZM137.846 2.55599L138.843 2.63269L138.976 0.912459L137.417 1.65272L137.846 2.55599ZM134.934 10.473L135.562 11.2509L135.566 11.2482L134.934 10.473ZM105.996 10.382L106.15 9.39395L104.996 9.21387V10.382H105.996ZM102.174 39.411L101.188 39.2466L100.992 40.4231L102.184 40.4109L102.174 39.411ZM125.47 36.408L126.467 36.4837L126.603 34.6971L125.011 35.5196L125.47 36.408ZM121.375 45.326L120.937 44.427L120.924 44.4334L120.911 44.4402L121.375 45.326ZM117.735 46.6L117.84 47.5945L117.866 47.5918L117.891 47.5878L117.735 46.6ZM101.082 45.963L101.164 44.9663L100.237 44.8905L100.094 45.8091L101.082 45.963ZM98.3521 75.447L97.3583 75.5574L97.4524 76.4043L98.3034 76.4458L98.3521 75.447ZM132.568 73.445L133.565 73.5198L133.701 71.7119L132.099 72.5617L132.568 73.445ZM131.294 79.269L130.385 78.8523L130.378 78.8682L130.371 78.8844L131.294 79.269ZM128.2 82.454L127.783 81.5449L127.783 81.5449L128.2 82.454ZM123.923 83.637L123.837 82.6408L123.812 82.6429L123.788 82.6462L123.923 83.637ZM99.5351 81.999L99.6766 81.0091L99.284 80.953L98.9597 81.1812L99.5351 81.999ZM92.1641 45.508L93.1495 45.6785L93.3397 44.5795L92.2265 44.5099L92.1641 45.508ZM87.5231 45.417L86.5322 45.2831L86.3789 46.417H87.5231V45.417ZM88.9791 40.958L89.7163 41.6337L89.7297 41.6191L89.7425 41.6039L88.9791 40.958ZM93.1651 39.502L93.2505 40.4983L94.0305 40.4315L94.1529 39.6582L93.1651 39.502ZM94.3481 6.651L93.7235 5.87013L93.179 6.30572L93.3995 6.96722L94.3481 6.651ZM108.532 5.10292L123.274 5.28492L123.298 3.28507L108.556 3.10307L108.532 5.10292ZM123.286 5.28499C126.948 5.28499 130.024 5.14023 132.504 4.84577C134.965 4.55348 136.914 4.10582 138.275 3.45927L137.417 1.65272C136.352 2.15883 134.66 2.57568 132.268 2.85972C129.895 3.14159 126.904 3.28499 123.286 3.28499V5.28499ZM136.849 2.4793C136.55 6.36457 135.605 8.63652 134.302 9.69776L135.566 11.2482C137.539 9.64014 138.535 6.63409 138.843 2.63269L136.849 2.4793ZM134.306 9.69506C132.994 10.7544 130.757 11.384 127.381 11.384V13.384C130.921 13.384 133.719 12.7396 135.562 11.2509L134.306 9.69506ZM127.381 11.384C121.749 11.384 114.677 10.7243 106.15 9.39395L105.842 11.37C114.424 12.709 121.608 13.384 127.381 13.384V11.384ZM104.996 10.382C104.996 14.3458 103.74 23.9305 101.188 39.2466L103.161 39.5754C105.704 24.3154 106.996 14.5475 106.996 10.382H104.996ZM102.184 40.4109C108.151 40.3501 113.108 40.0684 117.044 39.561C120.957 39.0567 123.95 38.3191 125.929 37.2964L125.011 35.5196C123.351 36.3776 120.641 37.0808 116.788 37.5775C112.959 38.0711 108.088 38.3506 102.164 38.411L102.184 40.4109ZM124.473 36.3323C124.114 41.061 122.788 43.5251 120.937 44.427L121.813 46.225C124.694 44.8215 126.098 41.3403 126.467 36.4837L124.473 36.3323ZM120.911 44.4402C119.712 45.0683 118.603 45.4506 117.579 45.6122L117.891 47.5878C119.173 47.3854 120.49 46.9184 121.839 46.2118L120.911 44.4402ZM117.63 45.6055C116.523 45.722 115.165 45.782 113.549 45.782V47.782C115.209 47.782 116.641 47.7206 117.84 47.5945L117.63 45.6055ZM113.549 45.782C111.961 45.782 107.853 45.5136 101.164 44.9663L101.001 46.9597C107.658 47.5044 111.861 47.782 113.549 47.782V45.782ZM100.094 45.8091C98.2121 57.89 97.2611 66.9023 97.2611 72.808H99.2611C99.2611 67.0657 100.191 58.1813 102.07 46.1169L100.094 45.8091ZM97.2611 72.808C97.2611 74.0251 97.291 74.9523 97.3583 75.5574L99.346 75.3366C99.2919 74.8497 99.2611 74.0175 99.2611 72.808H97.2611ZM98.3034 76.4458C103.288 76.6889 107.491 76.811 110.91 76.811V74.811C107.535 74.811 103.366 74.6904 98.4009 74.4482L98.3034 76.4458ZM110.91 76.811C116.661 76.811 121.373 76.6134 125.033 76.2136C128.656 75.8177 131.37 75.2129 133.037 74.3283L132.099 72.5617C130.794 73.2544 128.411 73.8326 124.816 74.2254C121.256 74.6142 116.625 74.811 110.91 74.811V76.811ZM131.571 73.3702C131.394 75.7336 130.984 77.545 130.385 78.8523L132.203 79.6857C132.939 78.081 133.379 76.0097 133.565 73.5198L131.571 73.3702ZM130.371 78.8844C129.863 80.1041 129.015 80.9807 127.783 81.5449L128.617 83.3631C130.298 82.5927 131.512 81.3459 132.217 79.6536L130.371 78.8844ZM127.783 81.5449C126.417 82.1713 125.103 82.5307 123.837 82.6408L124.01 84.6332C125.534 84.5007 127.071 84.0714 128.617 83.3631L127.783 81.5449ZM123.788 82.6462C122.526 82.8183 120.401 82.91 117.371 82.91V84.91C120.408 84.91 122.651 84.8197 124.058 84.6278L123.788 82.6462ZM117.371 82.91C114.482 82.91 108.607 82.2848 99.6766 81.0091L99.3937 82.9889C108.299 84.2612 114.315 84.91 117.371 84.91V82.91ZM98.9597 81.1812C97.452 82.2421 96.011 82.728 94.6211 82.728V84.728C96.5073 84.728 98.3422 84.0612 100.111 82.8168L98.9597 81.1812ZM94.6211 82.728C92.6851 82.728 91.376 82.0918 90.5101 80.9252C89.6028 79.7028 89.0691 77.7488 89.0691 74.901H87.0691C87.0691 77.9379 87.6275 80.3973 88.9042 82.1173C90.2223 83.893 92.1892 84.728 94.6211 84.728V82.728ZM89.0691 74.901C89.0691 71.185 90.4135 61.4864 93.1495 45.6785L91.1788 45.3375C88.4548 61.0763 87.0691 70.973 87.0691 74.901H89.0691ZM92.2265 44.5099C91.2225 44.4472 89.6489 44.417 87.5231 44.417V46.417C89.644 46.417 91.1644 46.4475 92.1018 46.506L92.2265 44.5099ZM88.5141 45.5509C88.661 44.4644 88.8476 43.5956 89.0653 42.9292C89.2866 42.2511 89.5189 41.849 89.7163 41.6337L88.242 40.2823C87.772 40.795 87.428 41.5 87.164 42.3083C86.8963 43.1283 86.6887 44.1249 86.5322 45.2831L88.5141 45.5509ZM89.7425 41.6039C89.9212 41.3927 90.2574 41.1547 90.8547 40.947C91.4476 40.7408 92.2386 40.5851 93.2505 40.4983L93.0797 38.5057C91.9683 38.6009 91 38.7789 90.1976 39.058C89.3996 39.3356 88.7044 39.7346 88.2158 40.3121L89.7425 41.6039ZM94.1529 39.6582C95.8508 28.9249 96.7131 21.3906 96.7131 17.116H94.7131C94.7131 21.2134 93.8768 28.6031 92.1774 39.3457L94.1529 39.6582ZM96.7131 17.116C96.7131 12.808 96.2529 9.20284 95.2968 6.33477L93.3995 6.96722C94.2634 9.55915 94.7131 12.9307 94.7131 17.116H96.7131ZM94.9728 7.43186C95.8394 6.73859 97.356 6.13894 99.6663 5.72427C101.952 5.314 104.906 5.103 108.544 5.103V3.103C104.842 3.103 101.759 3.31666 99.313 3.75572C96.8913 4.19038 94.9802 4.86473 93.7235 5.87013L94.9728 7.43186Z" fill="black"/>
</g>
<defs>
<clipPath id="clip0_30_2">
<rect width="142" height="85" fill="white"/>
</clipPath>
</defs>
</svg>
